<?xml version="1.0" encoding="iso-8859-1"?>
<!-- Generator: Adobe Illustrator 16.2.0, SVG Export Plug-In . SVG Version: 6.00 Build 0)  -->
<!DOCTYPE svg PUBLIC "-//W3C//DTD SVG 1.1//EN" "http://www.w3.org/Graphics/SVG/1.1/DTD/svg11.dtd">
<svg version="1.1" id="&#x421;&#x43B;&#x43E;&#x439;_1"
	 xmlns="http://www.w3.org/2000/svg" xmlns:xlink="http://www.w3.org/1999/xlink" x="0px" y="0px" width="38px" height="38px"
	 viewBox="0 0 38 38" style="enable-background:new 0 0 38 38;" xml:space="preserve">
<path d="M38,19C38,19,38,19,38,19C38,19,38,19,38,19c0-0.194-0.04-0.378-0.106-0.547c-0.003-0.008-0.004-0.016-0.007-0.023
	c-0.076-0.185-0.188-0.352-0.326-0.491l0,0l0,0c-0.002-0.001-0.004-0.003-0.006-0.004L26.246,6.625
	c-0.586-0.585-1.535-0.586-2.121,0s-0.586,1.536,0,2.122l8.753,8.753H1.5C0.672,17.5,0,18.171,0,19c0,0.828,0.672,1.5,1.5,1.5
	h31.378l-8.753,8.753c-0.586,0.586-0.586,1.535,0,2.121s1.535,0.586,2.121,0l11.313-11.312c0.141-0.14,0.252-0.308,0.328-0.493
	c0.003-0.007,0.004-0.014,0.007-0.021C37.96,19.378,38,19.194,38,19z"/>
</svg>
