<?xml version="1.0" encoding="iso-8859-1"?>
<!-- Generator: Adobe Illustrator 16.2.0, SVG Export Plug-In . SVG Version: 6.00 Build 0)  -->
<!DOCTYPE svg PUBLIC "-//W3C//DTD SVG 1.1//EN" "http://www.w3.org/Graphics/SVG/1.1/DTD/svg11.dtd">
<svg version="1.1" id="&#x421;&#x43B;&#x43E;&#x439;_1"
	 xmlns="http://www.w3.org/2000/svg" xmlns:xlink="http://www.w3.org/1999/xlink" x="0px" y="0px" width="38px" height="38px"
	 viewBox="0 0 38 38" style="enable-background:new 0 0 38 38;" xml:space="preserve">
<path d="M0,19C0,19,0,19,0,19C0,19,0,19,0,19c0-0.194,0.04-0.378,0.106-0.547c0.003-0.008,0.004-0.016,0.007-0.023
	c0.076-0.185,0.188-0.352,0.326-0.491l0,0l0,0c0.002-0.001,0.004-0.003,0.006-0.004L11.754,6.625c0.586-0.585,1.535-0.586,2.121,0
	s0.586,1.536,0,2.122L5.122,17.5H36.5c0.828,0,1.5,0.671,1.5,1.5c0,0.828-0.672,1.5-1.5,1.5H5.122l8.753,8.753
	c0.586,0.586,0.586,1.535,0,2.121s-1.535,0.586-2.121,0L0.441,20.063c-0.141-0.14-0.252-0.308-0.328-0.493
	c-0.003-0.007-0.004-0.014-0.007-0.021C0.04,19.378,0,19.194,0,19z"/>
</svg>
