<?xml version="1.0" encoding="iso-8859-1"?>
<!-- Generator: Adobe Illustrator 16.2.0, SVG Export Plug-In . SVG Version: 6.00 Build 0)  -->
<!DOCTYPE svg PUBLIC "-//W3C//DTD SVG 1.1//EN" "http://www.w3.org/Graphics/SVG/1.1/DTD/svg11.dtd">
<svg version="1.1" id="&#x421;&#x43B;&#x43E;&#x439;_1"
	 xmlns="http://www.w3.org/2000/svg" xmlns:xlink="http://www.w3.org/1999/xlink" x="0px" y="0px" width="12.404px"
	 height="35.801px" viewBox="-64.5 65.5 12.404 35.801" style="enable-background:new -64.5 65.5 12.404 35.801;"
	 xml:space="preserve">
<path d="M-59.3,66.501v27.602h-4.2c-0.399,0-0.8,0.199-0.899,0.6c-0.101,0.103-0.101,0.302-0.101,0.4c0,0.299,0.101,0.5,0.301,0.699
	l5.199,5.199c0.399,0.398,1,0.398,1.401,0l5.199-5.199c0.301-0.301,0.399-0.699,0.2-1.102c-0.2-0.398-0.5-0.6-0.899-0.6h-4.2V66.5
	c0-0.6-0.399-1-1-1C-58.899,65.5-59.3,65.9-59.3,66.501"/>
</svg>
