<?xml version="1.0" encoding="iso-8859-1"?>
<!-- Generator: Adobe Illustrator 16.2.0, SVG Export Plug-In . SVG Version: 6.00 Build 0)  -->
<!DOCTYPE svg PUBLIC "-//W3C//DTD SVG 1.1//EN" "http://www.w3.org/Graphics/SVG/1.1/DTD/svg11.dtd">
<svg version="1.1" id="Capa_1" xmlns="http://www.w3.org/2000/svg" xmlns:xlink="http://www.w3.org/1999/xlink" x="0px" y="0px"
	 width="533.332px" height="533.333px" viewBox="0 0 533.332 533.333" style="enable-background:new 0 0 533.332 533.333;"
	 xml:space="preserve">
<g>
	<circle cx="266.667" cy="300" r="108.333"/>
	<path d="M500,116.667H383.332C375,83.333,366.666,50,333.332,50H200c-33.333,0-41.667,33.333-50,66.667H33.333
		C15,116.667,0,131.667,0,150v300c0,18.332,15,33.332,33.333,33.332H500c18.332,0,33.334-15,33.334-33.332V150
		C533.332,131.667,518.332,116.667,500,116.667z M266.667,447.917c-81.692,0-147.917-66.224-147.917-147.916
		s66.224-147.917,147.917-147.917c81.692,0,147.917,66.224,147.917,147.917C414.582,381.693,348.361,447.917,266.667,447.917z"/>
</g>
</svg>
