<?xml version="1.0" encoding="iso-8859-1"?>
<!-- Generator: Adobe Illustrator 16.2.0, SVG Export Plug-In . SVG Version: 6.00 Build 0)  -->
<!DOCTYPE svg PUBLIC "-//W3C//DTD SVG 1.1//EN" "http://www.w3.org/Graphics/SVG/1.1/DTD/svg11.dtd">
<svg version="1.1" id="Layer_1" xmlns="http://www.w3.org/2000/svg" xmlns:xlink="http://www.w3.org/1999/xlink" x="0px" y="0px"
	 width="467.65px" height="77.633px" viewBox="0 0 467.65 77.633" style="enable-background:new 0 0 467.65 77.633;"
	 xml:space="preserve">
<path d="M0,75.921V1.713h15.983v59.937h25.688v14.271H0z M75.921,77.633c12.33,0,20.664-1.712,26.146-5.479V56.825
	c-3.914,4.143-12.897,7.679-22.95,7.679c-8.051,0-18.265-2.513-18.265-9.933c0-11.303,11.874-11.76,26.029-11.76h1.941V30.711
	h-2.626c-14.043,0-22.947-1.027-22.947-8.791c0-6.735,5.479-8.791,12.672-8.791c9.447,0,14.545,2.019,18.495,4.795V3.311
	C90.534,1.485,84.483,0,75.921,0C59.938,0,47.266,6.165,47.266,21.235c0,6.051,3.082,13.699,11.759,15.298
	c-9.021,1.484-14.385,9.59-14.385,18.039C44.64,71.468,58.682,77.633,75.921,77.633z M160.746,1.713v43.383L111.313,0h-0.686v75.921
	h15.982V34.136l49.435,43.497h0.686V14.842h24.09v61.079h15.982V14.842h24.546V1.713H160.746z M287.558,75.921h17.125L265.182,0
	h-0.687l-38.358,75.921h17.125l5.594-12.33h32.766L287.558,75.921z M264.839,28.656l10.731,22.376h-21.007L264.839,28.656z
	 M310.469,68.694c0,4.942,3.995,8.938,8.938,8.938c4.837,0,8.834-3.995,8.834-8.938c0-4.941-3.997-8.834-8.834-8.834
	C314.464,59.86,310.469,63.753,310.469,68.694z M337.335,75.921h15.982V59.709h7.535c2.169,0,4.338-0.114,6.279-0.457l14.727,16.669
	h18.838L381.402,53.43c7.078-5.364,11.074-13.586,11.074-22.719c0.001-18.724-11.872-28.998-31.623-28.998h-23.519V75.921
	L337.335,75.921z M353.317,14.842h6.051c11.417,0,17.125,5.822,17.125,15.869c0,8.905-5.937,15.869-17.238,15.869h-5.938V14.842
	L353.317,14.842z M435.289,64.504c-10.504,0-16.439-7.365-16.439-23.69V1.713h-15.983v35.561c0,24.774,8.791,40.359,32.424,40.359
	s32.361-15.928,32.361-40.359V1.713h-15.982v39.101C451.667,57.139,445.449,64.504,435.289,64.504z"/>
</svg>
