<?xml version="1.0" encoding="iso-8859-1"?>
<!-- Generator: Adobe Illustrator 16.2.0, SVG Export Plug-In . SVG Version: 6.00 Build 0)  -->
<!DOCTYPE svg PUBLIC "-//W3C//DTD SVG 1.1//EN" "http://www.w3.org/Graphics/SVG/1.1/DTD/svg11.dtd">
<svg version="1.1" id="&#x421;&#x43B;&#x43E;&#x439;_1"
	 xmlns="http://www.w3.org/2000/svg" xmlns:xlink="http://www.w3.org/1999/xlink" x="0px" y="0px" width="135px" height="89.118px"
	 viewBox="0 0 135 89.118" style="enable-background:new 0 0 135 89.118;" xml:space="preserve">
<path d="M109.727,59.724c-0.893,1.509-1.658,2.922-2.537,4.26c-1,1.52-2.088,2.982-3.162,4.452
	c-0.969,1.328-1.926,2.672-2.982,3.931c-0.52,0.62-1.213,1.127-1.91,1.551c-0.236,0.143-0.783-0.033-1.086-0.226
	c-1.393-0.887-1.727-2.301-1.434-3.767c0.486-2.432,1.01-4.876,1.797-7.221c1.045-3.113,3.045-5.589,5.816-7.408
	c0.787-0.517,1.533-1.093,2.318-1.61c0.434-0.287,0.863-0.255,1.402-0.083c1.588,0.505,1.986,1.67,1.996,3.129
	c0,0.082-0.002,0.163,0.008,0.244c0.006,0.053,0.027,0.104,0.057,0.207c0.096-0.115,0.254-0.23,0.236-0.296
	c-0.252-0.902,0.441-1.431,0.9-1.934c0.973-1.069,2.324-0.727,2.838,0.603c0.318,0.824,0.318,1.794,0.346,2.701
	c0.051,1.616,0.014,3.234,0.014,4.888c0.814-0.601,1.705-1.256,2.594-1.913c0.129-0.097,0.232-0.253,0.375-0.306
	c1.141-0.421,1.689-1.343,2.08-2.406c0.709-1.938,1.906-3.537,3.395-4.947c0.352-0.333,0.561-0.813,0.896-1.167
	c0.285-0.298,0.639-0.498,1.059-0.108c0.34,0.314,0.738,0.565,1.182,0.896c0.184-0.253,0.338-0.499,0.523-0.717
	c0.723-0.848,1.289-0.985,2.102-0.25c0.422,0.381,0.801,0.403,1.268,0.464c0.277,0.035,0.535,0.22,0.9,0.38
	c-0.27,0.169-0.389,0.243-0.621,0.389c0.408,0.245,0.736,0.441,1.135,0.68c-0.07,0.874-0.148,1.827-0.223,2.741
	c0.127,0.292,0.395,0.614,0.379,0.921c-0.055,0.974-0.217,1.941-0.326,2.832c1.049,0.42,2.141,0.829,3.205,1.302
	c0.27,0.12,0.445,0.446,0.666,0.678c-0.316,0.264-0.598,0.674-0.957,0.764c-1.164,0.288-2.355,0.458-3.658,0.696
	c-0.535,3.242-2.76,5.613-5.068,7.873c-2.275,2.228-5.826,0.801-6.834-1.596c-0.982-2.338-0.928-4.297-0.664-6.924
	c-1.174,0.987-2.363,1.847-3.355,2.893c-0.367,0.386-0.27,1.212-0.381,1.838c-0.254,1.449-0.559,2.893-0.75,4.35
	c-0.408,3.116-1.27,6.076-2.789,8.84c-0.604,1.095-1.025,2.305-1.729,3.324c-0.646,0.938-1.561,1.693-2.355,2.528
	c-0.07-0.049-0.139-0.098-0.207-0.146c0.018-0.221,0.033-0.441,0.059-0.755c-0.311,0.283-0.535,0.489-0.83,0.759
	c-0.223-0.551-0.213-1.108-1.02-0.876c-0.5,0.145-0.504,0.26-0.439,0.67c0.039,0.245-0.086,0.521-0.16,0.777
	c-0.104,0.369-0.229,0.732-0.293,0.94c-0.627,0.173-1.234,0.34-1.996,0.55c-0.059-0.313-0.178-0.737-0.209-1.168
	c-0.291-3.963,1.076-7.527,2.574-11.093c1.119-2.669,2.615-5.041,4.576-7.152c0.266-0.286,0.416-0.757,0.459-1.159
	c0.314-2.834,0.588-5.673,0.873-8.511C109.781,59.983,109.762,59.928,109.727,59.724z M123.568,68.342
	c2.002-0.507,4.486-3.285,4.729-4.936c-0.984-0.974-1.879-1.857-2.811-2.78C124.979,63.112,123.566,65.487,123.568,68.342z
	 M103.135,85.167c0.527-0.14,0.945-0.301,1.379-0.354c0.57-0.07,0.902-0.286,1.063-0.886c0.668-2.501,1.406-4.982,2.07-7.483
	c0.254-0.953,0.379-1.94,0.564-2.911c-0.113-0.037-0.227-0.073-0.338-0.11c-1.299,2.943-2.613,5.879-3.887,8.834
	c-0.357,0.831-0.598,1.713-0.877,2.577C103.074,84.947,103.129,85.088,103.135,85.167z M102.785,67.521
	c2.598-2.698,4.764-5.809,6.602-9.351C106.039,60.646,103.338,63.377,102.785,67.521z M129.457,60.24
	c0.109-0.051,0.219-0.102,0.33-0.152c0.244-0.995,0.496-1.988,0.727-2.985c0.025-0.109-0.018-0.287-0.098-0.361
	c-0.811-0.765-1.629-1.524-2.469-2.257c-0.127-0.109-0.486-0.16-0.553-0.081c-0.135,0.16-0.199,0.429-0.189,0.648
	c0.023,0.585,0.096,1.168,0.162,1.75c0.047,0.404-0.014,0.897,0.195,1.192C128.131,58.788,128.816,59.497,129.457,60.24z"/>
<path d="M79.62,64.909c1.676-1.537,3.352-3.075,5.158-4.732c0.898,3.546-1.213,5.688-3.215,7.963
	c0.389,0.428,0.779,0.859,1.258,1.384c0.107-0.164,0.154-0.315,0.258-0.38c0.297-0.188,0.617-0.34,0.928-0.507
	c0.043,0.371,0.246,0.824,0.104,1.101c-0.576,1.127-1.188,2.252-1.926,3.275c-0.568,0.787-1.164,0.746-1.836,0.023
	c-0.547-0.591-1.025-1.247-1.512-1.847c-1.35,0.842-2.652,1.716-4.012,2.489c-4.496,2.56-7.796-1.169-8.251-4.521
	c-0.375-2.759,0.718-4.888,2.789-6.559c1.176-0.949,2.459-1.776,3.744-2.581c0.521-0.327,0.752-0.599,0.664-1.259
	c-0.635-4.84,3.213-8.846,6.943-9.699c0.775-0.177,1.623-0.206,2.414-0.104c1.984,0.253,2.877,1.899,2.264,4.024
	c-0.42,1.444-1.348,2.552-2.518,3.413c-1.504,1.108-3.082,2.118-4.656,3.129c-0.518,0.333-0.688,0.648-0.445,1.251
	c0.529,1.327,0.998,2.68,1.492,4.022C79.382,64.833,79.501,64.871,79.62,64.909z M74.503,62.138
	c-1.859,1.364-3.506,2.83-4.518,4.875c-0.195,0.396-0.299,0.876-0.307,1.319c-0.014,0.804,0.494,1.301,1.287,1.22
	c2.129-0.216,3.951-1.161,5.656-2.423C75.903,65.435,75.218,63.823,74.503,62.138z M77.231,57.125
	c0.926-0.645,1.791-1.185,2.584-1.815c1.213-0.964,2.332-2.04,2.902-3.522c0.135-0.351,0.139-0.993-0.074-1.175
	c-0.27-0.229-0.883-0.277-1.246-0.138C79.333,51.27,76.726,54.354,77.231,57.125z"/>
<g>
	<path d="M43.51,47.704c-0.947,0.141-1.839,0.349-2.739,0.393c-1.889,0.092-3.781,0.128-5.672,0.125
		c-0.708-0.001-1.334-1.016-1.229-1.825c0.027-0.211,0.071-0.42,0.091-0.538c3.131-0.311,6.266-0.631,9.402-0.927
		c0.536-0.051,0.828-0.257,0.873-0.813c0.123-1.501,0.243-3.002,0.409-4.497c0.048-0.438,0.17-0.91,0.407-1.268
		c0.112-0.168,0.643-0.235,0.868-0.12c0.924,0.471,1.832,0.985,2.692,1.564c1.443,0.972,1.875,2.087,1.624,3.958
		c2.252-0.434,4.489-0.888,6.735-1.285c0.819-0.145,1.661-0.164,2.493-0.228c0.523-0.041,1.041-0.06,1.311,0.546
		c0.038,0.085,0.237,0.084,0.313,0.167c0.211,0.23,0.521,0.466,0.563,0.735c0.064,0.419-0.147,0.78-0.683,0.782
		c-3.508,0.013-6.773,1.287-10.159,1.938c-0.483,0.094-0.694,0.275-0.732,0.767c-0.174,2.225-0.397,4.445-0.556,6.67
		c-0.163,2.284-0.319,4.571-0.388,6.859c-0.063,2.077,0.031,4.16-0.015,6.238c-0.028,1.274,0.134,2.523,0.416,3.745
		c0.216,0.938,0.734,1.763,1.62,2.266c0.66,0.376,1.146,0.279,1.448-0.461c0.426-1.047,0.693-2.157,1.056-3.231
		c0.335-0.99,0.698-1.971,1.071-2.947c0.067-0.177,0.246-0.311,0.385-0.479c1.034,0.866,0.583,1.946,0.432,2.828
		c-0.368,2.138-1.011,4.207-1.958,6.192c-0.964,2.024-3.386,2.125-4.907,1.021c-1.186-0.861-1.749-2.126-2.255-3.41
		c-0.82-2.079-1.567-4.188-2.325-6.229c-0.444,0.953-0.954,2.035-1.454,3.121c-0.653,1.418-1.471,2.692-2.778,3.623
		c-0.669,0.477-1.204,1.142-1.875,1.613c-1.658,1.165-3.375,1.168-5.083,0.075c-2.261-1.445-3.667-3.404-3.758-6.217
		c-0.284,0.593-0.572,1.184-0.852,1.777c-0.651,1.385-1.444,2.646-2.718,3.573c-0.731,0.531-1.319,1.271-2.073,1.759
		c-1.289,0.833-2.715,1.102-4.153,0.364c-4.176-2.139-4.768-5.008-4.333-8.487c0.396-3.172,1.682-5.967,4.143-8.138
		c0.481-0.424,0.848-0.984,1.24-1.503c1.117-1.478,2.376-1.729,3.998-0.807c0.249,0.142,0.589,0.279,0.844,0.223
		c0.882-0.192,1.061,0.389,1.267,1.007c0.513,1.542-0.139,2.86-0.956,4.029c-1.02,1.459-2.193,2.82-3.387,4.145
		c-1.164,1.291-1.09,2.828-1.008,4.352c0.036,0.66,1.403,1.283,2.29,1.148c2.118-0.32,3.731-1.349,4.583-3.389
		c0.798-1.913,1.503-3.871,2.412-5.729c0.608-1.245,1.457-2.384,2.281-3.509c0.605-0.826,1.379-1.527,2.02-2.331
		c1.192-1.496,2.324-1.733,3.999-0.802c0.251,0.14,0.588,0.274,0.848,0.223c0.817-0.159,1.034,0.353,1.252,0.947
		c0.469,1.277,0.08,2.479-0.6,3.473c-1.14,1.669-2.42,3.255-3.755,4.774c-1.151,1.312-1.08,2.84-0.982,4.354
		c0.051,0.782,1.664,1.362,2.711,1.098c2.002-0.506,3.54-1.573,4.253-3.607c0.036-0.102,0.082-0.202,0.138-0.293
		c1.099-1.769,1.054-3.569,0.599-5.584c-0.694-3.077-0.5-6.249-0.216-9.386C43.126,50.69,43.328,49.25,43.51,47.704z M22.095,64.3
		c0.083,0.039,0.166,0.078,0.249,0.118c0.579-0.986,1.236-1.937,1.714-2.969c0.429-0.927-0.13-1.999-1.162-2.474
		C21.956,60.665,22.882,62.609,22.095,64.3z M36.347,63.515c0.09,0.046,0.18,0.092,0.27,0.138c0.6-1.021,1.268-2.009,1.777-3.072
		c0.433-0.904-0.148-2.02-1.156-2.443C36.251,59.827,37.305,61.833,36.347,63.515z"/>
	<path d="M13.511,48.368c-0.11,1.606-0.24,3.213-0.327,4.82c-0.095,1.755-0.385,3.541-0.171,5.261
		c0.322,2.584-0.346,5.079-0.302,7.623c0.025,1.449-0.016,2.899-0.041,4.349c-0.016,0.92-0.019,1.843-0.103,2.757
		c-0.037,0.404-0.24,0.799-0.405,1.183c-0.198,0.464-0.486,0.894-0.644,1.368c-0.28,0.847-0.725,1.083-1.574,0.786
		c-0.43-0.15-0.879-0.345-1.32-0.346c-2.125-0.006-3.183-1.468-4.094-3.031c-1.292-2.217-1.782-4.733-2.478-7.171
		c-0.945-3.306-1.415-6.698-1.941-10.084c-0.209-1.342,0.386-2.248,1.381-2.932c0.262-0.18,0.835-0.053,1.203,0.092
		c2.582,1.015,3.77,3.127,4.281,5.69c0.473,2.374,1.003,4.754,1.208,7.156c0.113,1.319-0.253,2.677-0.027,4.053
		c0.241,1.466,0.842,2.479,2.495,2.688c0.054-0.164,0.175-0.377,0.188-0.597c0.133-2.103,0.274-4.206,0.362-6.311
		c0.197-4.718,0.138-9.455,0.954-14.127c0.196-1.127,0.67-2.207,1.017-3.309C13.286,48.314,13.398,48.341,13.511,48.368z"/>
</g>
<g>
	<path d="M26.728,17.497c0.625-1.113,0.494-2.125-0.392-2.967c-0.461-0.437-1.01-0.706-1.628-0.838
		c-1.142-0.244-2.241-0.059-3.283,0.414c-0.694,0.314-1.348,0.72-2.025,1.089c-0.022-0.146-0.048-0.34-0.08-0.531
		c-0.169-0.999-0.412-1.976-1.026-2.81c-0.976-1.323-2.7-1.399-3.802-0.177c-0.397,0.441-0.669,0.958-0.879,1.508
		c-0.49,1.292-0.652,2.638-0.654,4.007c-0.002,1.771,0.246,3.501,0.912,5.154c0.312,0.772,0.712,1.49,1.332,2.063
		c0.808,0.747,1.738,0.951,2.769,0.563c0.367-0.14,0.731-0.319,1.047-0.551c2.116-1.552,4.181-3.17,6.102-4.96
		C25.743,18.879,26.307,18.245,26.728,17.497z M16.067,13.913c0.086-0.193,0.166-0.372,0.246-0.55
		c0.023,0.001,0.047,0.002,0.07,0.003c0.065,0.185,0.131,0.372,0.212,0.598C16.401,13.946,16.256,13.932,16.067,13.913z
		 M23.588,16.711c-0.384,0.461-0.384,0.461-0.99,0.195c0.358-0.144,0.717-0.287,1.074-0.431c0.013,0.028,0.025,0.055,0.038,0.083
		C23.669,16.609,23.629,16.661,23.588,16.711z"/>
	<path d="M16.964,30.775c0.136-0.473-0.083-0.912-0.565-1.058c-0.481-0.146-0.886,0.037-1.027,0.504
		c-0.58,1.927-1.16,3.841-1.727,5.772c-0.15,0.513-0.264,1.032-0.356,1.559c-0.091,0.521,0.065,0.718,0.572,0.862
		c0.418,0.119,0.628,0.037,0.846-0.339c0.074-0.128,0.118-0.17,0.162-0.311c0.39-1.217,0.895-2.851,1.131-3.563
		c-0.012-0.003-0.024-0.007-0.036-0.011C16.386,32.754,16.645,31.884,16.964,30.775z"/>
	<path d="M24.755,25.702c-0.133-0.244-0.294-0.479-0.475-0.691c-0.278-0.328-0.63-0.351-0.994-0.101
		c-0.303,0.209-0.383,0.555-0.199,0.921c0.144,0.287,0.299,0.568,0.453,0.853c0.801,1.479,1.598,2.962,2.411,4.437
		c0.105,0.189,0.293,0.333,0.443,0.498c0.364,0.05,0.732-0.051,0.93-0.291c0.199-0.243,0.18-0.502,0.041-0.762
		C26.497,28.943,25.631,27.32,24.755,25.702z"/>
	<path d="M35.251,23.009c-0.146-0.135-0.337-0.24-0.526-0.311c-1.121-0.414-2.248-0.814-3.099-1.121
		c-1.142-0.336-2.005-0.593-2.869-0.84c-0.399-0.115-0.792,0.072-0.919,0.419c-0.15,0.406-0.023,0.678,0.426,0.881
		c0.18,0.081,0.365,0.153,0.553,0.214c1.572,0.498,3.147,0.989,4.718,1.487c0.346,0.109,0.681,0.254,1.026,0.364
		c0.303,0.098,0.637-0.037,0.799-0.296C35.505,23.579,35.476,23.214,35.251,23.009z"/>
	<path d="M30.748,14.136c0.212,0.045,0.449,0.067,0.656,0.021c1.592-0.359,3.182-0.732,4.769-1.114
		c0.245-0.059,0.49-0.16,0.706-0.29c0.167-0.1,0.288-0.276,0.428-0.417c0.074-0.428-0.089-0.705-0.512-0.724
		c-0.541-0.026-1.104-0.078-1.623,0.038c-1.342,0.299-2.667,0.676-3.994,1.044c-0.231,0.063-0.443,0.216-0.646,0.355
		c-0.201,0.139-0.309,0.345-0.257,0.601C30.326,13.911,30.501,14.083,30.748,14.136z"/>
	<path d="M18.744,1.857c-0.159,1.359-0.32,2.718-0.486,4.077c-0.034,0.273,0.081,0.464,0.296,0.604
		c0.548,0.357,1.106,0.082,1.185-0.573c0.139-1.17,0.294-2.339,0.421-3.511c0.063-0.589,0.102-1.182,0.112-1.774
		c0.007-0.391-0.132-0.537-0.464-0.637c-0.505-0.151-0.885,0.105-0.941,0.634C18.825,1.07,18.789,1.464,18.744,1.857z"/>
	<path d="M8.805,19.463c-0.104-0.248-0.297-0.396-0.562-0.431c-0.441-0.059-0.883-0.115-1.327-0.157
		c-1.477-0.141-2.954-0.276-4.431-0.409c-0.402-0.036-0.673,0.158-0.736,0.501c-0.062,0.341,0.139,0.65,0.538,0.766
		c0.034,0.004,0.115,0.016,0.197,0.025c1.377,0.138,2.754,0.282,4.133,0.41c0.565,0.052,1.134,0.097,1.7,0.092
		C8.783,20.256,8.983,19.89,8.805,19.463z"/>
	<path d="M24.101,9.633c0.434,0.205,0.876,0.062,1.093-0.347c0.611-1.15,1.22-2.3,1.835-3.447c0.259-0.481,0.063-0.979-0.458-1.135
		c-0.005-0.023-0.011-0.047-0.017-0.072c-0.208,0.046-0.445,0.044-0.615,0.15c-0.185,0.117-0.337,0.316-0.452,0.511
		c-0.312,0.523-0.6,1.061-0.888,1.598c-0.303,0.566-0.61,1.132-0.885,1.712C23.512,9.029,23.683,9.436,24.101,9.633z"/>
	<path d="M5.543,10.867c0.101,0.096,0.21,0.186,0.324,0.267c0.347,0.251,0.696,0.5,1.047,0.744c0.792,0.549,1.584,1.099,2.38,1.642
		c0.437,0.297,0.99,0.121,1.19-0.373c-0.058-0.152-0.087-0.328-0.181-0.453c-0.122-0.161-0.282-0.303-0.45-0.417
		c-1.175-0.805-2.355-1.605-3.539-2.398c-0.301-0.201-0.68-0.133-0.891,0.13C5.215,10.271,5.256,10.595,5.543,10.867z"/>
	<path d="M10.042,25.811c-0.249-0.208-0.519-0.225-0.806-0.072c-1.082,0.581-2.169,1.157-3.25,1.743
		c-0.267,0.145-0.528,0.308-0.774,0.485c-0.279,0.202-0.322,0.364-0.216,0.609c0.145,0.337,0.375,0.5,0.684,0.442
		c0.209-0.038,0.423-0.099,0.609-0.196c1.241-0.653,2.478-1.315,3.709-1.986c0.127-0.069,0.215-0.211,0.276-0.273
		C10.361,26.205,10.252,25.984,10.042,25.811z"/>
	<path d="M12.642,5.097c0.219,0.586,0.418,1.18,0.622,1.771c0.088,0.255,0.24,0.447,0.476,0.527c0.544,0.161,1.098-0.255,0.94-0.713
		C14.353,5.734,13.982,4.8,13.607,3.87c-0.081-0.197-0.242-0.375-0.402-0.524c-0.252-0.237-0.618-0.221-0.876,0.001
		c-0.238,0.204-0.269,0.493-0.111,0.807C12.371,4.461,12.521,4.774,12.642,5.097z"/>
</g>
</svg>
