<?xml version="1.0" encoding="iso-8859-1"?>
<!-- Generator: Adobe Illustrator 16.2.0, SVG Export Plug-In . SVG Version: 6.00 Build 0)  -->
<!DOCTYPE svg PUBLIC "-//W3C//DTD SVG 1.1//EN" "http://www.w3.org/Graphics/SVG/1.1/DTD/svg11.dtd">
<svg version="1.1" id="&#x421;&#x43B;&#x43E;&#x439;_1"
	 xmlns="http://www.w3.org/2000/svg" xmlns:xlink="http://www.w3.org/1999/xlink" x="0px" y="0px" width="135px" height="54.816px"
	 viewBox="0 0 135 54.816" style="enable-background:new 0 0 135 54.816;" xml:space="preserve">
<g>
	<path d="M43.44,9.527c-0.946,0.141-1.838,0.349-2.738,0.393c-1.889,0.092-3.781,0.128-5.672,0.125
		c-0.708-0.001-1.334-1.016-1.229-1.825c0.027-0.211,0.071-0.42,0.091-0.538c3.131-0.311,6.266-0.631,9.402-0.927
		c0.535-0.051,0.828-0.257,0.873-0.813c0.123-1.501,0.243-3.002,0.409-4.497c0.048-0.438,0.17-0.91,0.407-1.268
		c0.111-0.168,0.643-0.235,0.867-0.12c0.924,0.471,1.832,0.985,2.692,1.564c1.443,0.972,1.876,2.087,1.624,3.958
		c2.252-0.434,4.488-0.888,6.734-1.285c0.818-0.145,1.66-0.164,2.493-0.228c0.522-0.041,1.041-0.06,1.311,0.546
		c0.038,0.085,0.237,0.084,0.313,0.167c0.211,0.23,0.521,0.466,0.563,0.735c0.064,0.419-0.148,0.78-0.684,0.782
		c-3.508,0.013-6.773,1.287-10.158,1.938c-0.482,0.094-0.694,0.275-0.732,0.767c-0.174,2.225-0.397,4.445-0.556,6.67
		c-0.163,2.284-0.319,4.571-0.388,6.859c-0.063,2.077,0.03,4.16-0.016,6.238c-0.027,1.274,0.134,2.524,0.416,3.746
		c0.216,0.938,0.734,1.763,1.619,2.266c0.66,0.376,1.146,0.279,1.447-0.461c0.426-1.047,0.693-2.157,1.057-3.231
		c0.334-0.991,0.697-1.971,1.07-2.948c0.068-0.177,0.246-0.311,0.385-0.479c1.035,0.866,0.584,1.946,0.432,2.828
		c-0.367,2.138-1.011,4.208-1.957,6.193c-0.964,2.024-3.386,2.125-4.907,1.021c-1.186-0.861-1.749-2.126-2.255-3.41
		c-0.82-2.079-1.568-4.189-2.325-6.23c-0.444,0.953-0.954,2.035-1.454,3.122c-0.652,1.418-1.47,2.692-2.777,3.623
		c-0.669,0.477-1.204,1.142-1.875,1.613c-1.658,1.165-3.375,1.168-5.083,0.075c-2.261-1.445-3.667-3.404-3.758-6.217
		c-0.284,0.593-0.572,1.184-0.852,1.778c-0.651,1.385-1.444,2.646-2.718,3.573c-0.731,0.531-1.319,1.271-2.073,1.759
		c-1.289,0.833-2.715,1.102-4.153,0.364c-4.176-2.139-4.768-5.008-4.333-8.488c0.396-3.172,1.682-5.967,4.143-8.138
		c0.481-0.424,0.848-0.984,1.24-1.503c1.117-1.478,2.376-1.729,3.998-0.807c0.249,0.142,0.589,0.279,0.844,0.223
		c0.882-0.192,1.061,0.389,1.267,1.007c0.513,1.542-0.139,2.86-0.956,4.029c-1.02,1.459-2.193,2.82-3.387,4.145
		c-1.164,1.291-1.09,2.829-1.008,4.352c0.036,0.66,1.403,1.283,2.29,1.148c2.118-0.32,3.731-1.349,4.583-3.389
		c0.798-1.913,1.503-3.871,2.412-5.729c0.608-1.245,1.457-2.384,2.281-3.509c0.605-0.826,1.379-1.527,2.02-2.331
		c1.192-1.496,2.324-1.733,3.999-0.802c0.251,0.14,0.588,0.274,0.848,0.223c0.817-0.159,1.034,0.353,1.252,0.947
		c0.469,1.277,0.08,2.479-0.6,3.473c-1.14,1.669-2.42,3.255-3.755,4.774c-1.151,1.312-1.08,2.84-0.982,4.354
		c0.051,0.782,1.664,1.362,2.711,1.098c2.002-0.506,3.54-1.573,4.253-3.608c0.036-0.102,0.081-0.202,0.138-0.293
		c1.1-1.769,1.055-3.569,0.6-5.584c-0.694-3.077-0.5-6.249-0.216-9.386C43.057,12.513,43.258,11.074,43.44,9.527z M22.026,26.124
		c0.083,0.039,0.166,0.078,0.249,0.118c0.579-0.986,1.236-1.937,1.714-2.969c0.429-0.927-0.13-1.999-1.162-2.474
		C21.887,22.488,22.813,24.432,22.026,26.124z M36.277,25.338c0.09,0.046,0.18,0.092,0.27,0.138c0.6-1.021,1.268-2.009,1.777-3.072
		c0.433-0.904-0.148-2.02-1.156-2.443C36.182,21.65,37.235,23.656,36.277,25.338z"/>
	<path d="M109.657,25.422c-0.893,1.509-1.658,2.922-2.537,4.26c-0.999,1.52-2.087,2.983-3.161,4.453
		c-0.97,1.328-1.927,2.672-2.983,3.931c-0.52,0.62-1.213,1.127-1.91,1.551c-0.236,0.143-0.783-0.033-1.086-0.226
		c-1.393-0.887-1.727-2.301-1.434-3.767c0.486-2.432,1.01-4.876,1.797-7.221c1.045-3.113,3.045-5.589,5.816-7.408
		c0.787-0.517,1.533-1.093,2.318-1.61c0.435-0.287,0.864-0.255,1.403-0.083c1.587,0.505,1.985,1.67,1.995,3.129
		c0,0.082-0.001,0.163,0.008,0.244c0.006,0.053,0.027,0.104,0.058,0.207c0.096-0.115,0.254-0.23,0.235-0.296
		c-0.252-0.902,0.441-1.431,0.9-1.934c0.973-1.069,2.324-0.727,2.838,0.603c0.319,0.824,0.318,1.794,0.346,2.701
		c0.051,1.616,0.015,3.234,0.015,4.888c0.814-0.601,1.704-1.256,2.593-1.913c0.13-0.097,0.232-0.253,0.375-0.306
		c1.141-0.421,1.689-1.343,2.08-2.406c0.71-1.938,1.907-3.537,3.395-4.947c0.352-0.333,0.561-0.813,0.896-1.167
		c0.285-0.298,0.639-0.498,1.059-0.108c0.34,0.314,0.739,0.565,1.182,0.896c0.184-0.253,0.338-0.499,0.523-0.717
		c0.724-0.848,1.289-0.985,2.102-0.25c0.422,0.381,0.802,0.403,1.269,0.464c0.277,0.035,0.535,0.22,0.9,0.38
		c-0.271,0.169-0.39,0.243-0.622,0.389c0.408,0.245,0.736,0.441,1.135,0.68c-0.07,0.874-0.148,1.827-0.223,2.741
		c0.127,0.292,0.396,0.614,0.379,0.921c-0.055,0.974-0.217,1.941-0.326,2.832c1.049,0.42,2.142,0.829,3.205,1.302
		c0.27,0.12,0.446,0.446,0.666,0.678c-0.316,0.264-0.598,0.674-0.957,0.764c-1.163,0.288-2.355,0.458-3.658,0.696
		c-0.535,3.243-2.759,5.614-5.068,7.874c-2.275,2.228-5.825,0.801-6.833-1.596c-0.983-2.338-0.928-4.297-0.664-6.924
		c-1.175,0.987-2.364,1.847-3.356,2.893c-0.366,0.386-0.27,1.212-0.381,1.838c-0.254,1.449-0.558,2.893-0.749,4.35
		c-0.409,3.116-1.27,6.076-2.79,8.84c-0.604,1.095-1.025,2.305-1.729,3.324c-0.646,0.938-1.561,1.693-2.355,2.528
		c-0.069-0.049-0.139-0.098-0.207-0.146c0.018-0.221,0.034-0.441,0.059-0.755c-0.311,0.283-0.535,0.489-0.83,0.759
		c-0.223-0.551-0.213-1.108-1.019-0.876c-0.501,0.145-0.505,0.26-0.439,0.67c0.039,0.245-0.087,0.521-0.16,0.777
		c-0.104,0.369-0.229,0.732-0.294,0.94c-0.627,0.173-1.234,0.34-1.995,0.55c-0.059-0.313-0.179-0.737-0.21-1.168
		c-0.29-3.963,1.077-7.527,2.574-11.093c1.119-2.669,2.615-5.041,4.576-7.152c0.266-0.286,0.416-0.757,0.46-1.159
		c0.314-2.834,0.588-5.673,0.872-8.511C109.713,25.681,109.692,25.626,109.657,25.422z M123.5,34.041
		c2.001-0.507,4.485-3.286,4.729-4.936c-0.985-0.974-1.879-1.857-2.812-2.78C124.91,28.81,123.497,31.186,123.5,34.041z
		 M103.066,50.865c0.526-0.14,0.945-0.301,1.378-0.354c0.57-0.07,0.902-0.286,1.063-0.886c0.668-2.501,1.406-4.982,2.07-7.483
		c0.254-0.953,0.38-1.94,0.564-2.911c-0.113-0.037-0.226-0.073-0.338-0.11c-1.299,2.943-2.613,5.879-3.887,8.834
		c-0.357,0.831-0.598,1.713-0.876,2.577C103.005,50.646,103.06,50.787,103.066,50.865z M102.716,33.22
		c2.598-2.699,4.765-5.809,6.602-9.351C105.971,26.344,103.269,29.076,102.716,33.22z M129.388,25.938
		c0.109-0.051,0.22-0.102,0.33-0.152c0.245-0.995,0.496-1.988,0.728-2.985c0.025-0.109-0.019-0.287-0.098-0.361
		c-0.812-0.765-1.63-1.524-2.47-2.257c-0.126-0.109-0.486-0.16-0.553-0.081c-0.134,0.16-0.199,0.429-0.189,0.648
		c0.024,0.585,0.096,1.168,0.162,1.75c0.047,0.404-0.014,0.897,0.196,1.192C128.062,24.486,128.748,25.195,129.388,25.938z"/>
	<path d="M79.726,29.295c1.676-1.537,3.353-3.075,5.159-4.732c0.897,3.546-1.214,5.688-3.216,7.963
		c0.389,0.428,0.78,0.859,1.258,1.384c0.107-0.164,0.155-0.315,0.258-0.38c0.297-0.188,0.617-0.34,0.928-0.507
		c0.044,0.371,0.246,0.824,0.104,1.101c-0.576,1.127-1.187,2.252-1.926,3.275c-0.568,0.787-1.164,0.746-1.835,0.023
		c-0.548-0.591-1.026-1.247-1.513-1.847c-1.35,0.842-2.652,1.716-4.012,2.489c-4.495,2.56-7.795-1.169-8.251-4.521
		c-0.376-2.759,0.718-4.888,2.789-6.559c1.177-0.949,2.459-1.776,3.744-2.581c0.522-0.327,0.752-0.599,0.665-1.259
		c-0.636-4.84,3.213-8.846,6.943-9.699c0.774-0.177,1.623-0.206,2.413-0.104c1.985,0.253,2.878,1.899,2.264,4.024
		c-0.419,1.444-1.348,2.552-2.518,3.413c-1.504,1.108-3.082,2.118-4.656,3.129c-0.518,0.333-0.687,0.648-0.445,1.251
		c0.53,1.327,0.998,2.68,1.492,4.022C79.488,29.219,79.606,29.257,79.726,29.295z M74.608,26.525
		c-1.859,1.364-3.505,2.83-4.517,4.875c-0.196,0.396-0.3,0.876-0.308,1.319c-0.013,0.804,0.494,1.301,1.288,1.22
		c2.128-0.216,3.95-1.161,5.655-2.423C76.009,29.822,75.323,28.209,74.608,26.525z M77.337,21.512
		c0.926-0.645,1.791-1.185,2.585-1.815c1.212-0.964,2.331-2.04,2.902-3.522c0.135-0.351,0.139-0.993-0.075-1.175
		c-0.27-0.229-0.883-0.277-1.245-0.138C79.439,15.657,76.831,18.741,77.337,21.512z"/>
	<path d="M13.442,10.191c-0.11,1.606-0.24,3.213-0.327,4.82c-0.095,1.755-0.385,3.541-0.171,5.261
		c0.322,2.584-0.346,5.079-0.302,7.623c0.025,1.449-0.016,2.899-0.041,4.349c-0.016,0.92-0.019,1.843-0.103,2.757
		c-0.037,0.404-0.24,0.799-0.405,1.183c-0.198,0.464-0.486,0.894-0.644,1.368c-0.28,0.847-0.725,1.083-1.574,0.786
		c-0.43-0.15-0.879-0.345-1.32-0.346c-2.125-0.006-3.183-1.468-4.094-3.031c-1.292-2.217-1.782-4.734-2.478-7.171
		c-0.945-3.306-1.415-6.698-1.941-10.084c-0.209-1.342,0.386-2.248,1.381-2.932c0.262-0.18,0.835-0.053,1.203,0.092
		c2.582,1.015,3.77,3.127,4.281,5.69c0.473,2.374,1.003,4.754,1.208,7.156c0.113,1.319-0.253,2.677-0.027,4.053
		c0.241,1.466,0.842,2.479,2.495,2.688c0.054-0.164,0.175-0.377,0.188-0.597c0.133-2.103,0.274-4.207,0.362-6.311
		c0.197-4.718,0.138-9.455,0.954-14.127c0.196-1.127,0.67-2.207,1.017-3.309C13.216,10.137,13.329,10.165,13.442,10.191z"/>
</g>
</svg>
