<?xml version="1.0" encoding="iso-8859-1"?>
<!-- Generator: Adobe Illustrator 16.2.0, SVG Export Plug-In . SVG Version: 6.00 Build 0)  -->
<!DOCTYPE svg PUBLIC "-//W3C//DTD SVG 1.1//EN" "http://www.w3.org/Graphics/SVG/1.1/DTD/svg11.dtd">
<svg version="1.1" id="&#x421;&#x43B;&#x43E;&#x439;_1"
	 xmlns="http://www.w3.org/2000/svg" xmlns:xlink="http://www.w3.org/1999/xlink" x="0px" y="0px" width="110px" height="110px"
	 viewBox="0 0 110 110" style="enable-background:new 0 0 110 110;" xml:space="preserve">
<path d="M96.707,109.604c-0.694-0.175-1.188-0.633-1.68-1.124c-8.291-8.304-16.59-16.599-24.887-24.896
	c-0.129-0.128-0.26-0.254-0.38-0.371c-10.907,6.839-22.629,9.008-35.149,6.078C23.94,86.792,15.32,81.002,8.804,72.197
	C-4.178,54.654-2.72,30.121,12.628,14.172C27.767-1.56,52.14-4.143,70.244,8.109c6.472,4.379,11.488,10.064,15.02,17.037
	c3.537,6.985,5.116,14.408,4.789,22.229c-0.326,7.804-2.556,15.038-6.628,21.724c0.143,0.146,0.268,0.277,0.396,0.405
	c8.373,8.371,16.745,16.745,25.123,25.111c0.467,0.467,0.925,0.923,1.057,1.603c0,0.336,0,0.673,0,1.009
	c-0.081,0.32-0.143,0.647-0.244,0.961c-0.396,1.238-1.046,2.348-1.907,3.306c-1.855,2.065-3.805,4.044-5.882,5.886
	c-1.222,1.083-2.637,1.864-4.273,2.169c-0.026,0.005-0.047,0.036-0.07,0.055C97.318,109.604,97.012,109.604,96.707,109.604z
	 M45.085,15.365c-16.617-0.006-30.124,13.429-30.148,29.99c-0.025,16.659,13.45,30.192,30.084,30.212
	c16.607,0.021,30.115-13.49,30.117-30.125C75.139,28.847,61.675,15.371,45.085,15.365z"/>
</svg>
