<?xml version="1.0" encoding="iso-8859-1"?>
<!-- Generator: Adobe Illustrator 16.2.0, SVG Export Plug-In . SVG Version: 6.00 Build 0)  -->
<!DOCTYPE svg PUBLIC "-//W3C//DTD SVG 1.1//EN" "http://www.w3.org/Graphics/SVG/1.1/DTD/svg11.dtd">
<svg version="1.1" id="&#x421;&#x43B;&#x43E;&#x439;_1"
	 xmlns="http://www.w3.org/2000/svg" xmlns:xlink="http://www.w3.org/1999/xlink" x="0px" y="0px" width="17.612px"
	 height="30.422px" viewBox="0 0 17.612 30.422" style="enable-background:new 0 0 17.612 30.422;" xml:space="preserve">
<path d="M16.717,29.411c-1.53,1.559-3.163,0.125-4.354-1.02c-1.021-0.984-2.25-2.218-3.319-3.056
	c-2.792,2.943-5.06,6.479-7.353,4.522c-2.747-2.346,2.647-5.785,3.963-7.812c-1.371-0.306-3.678-1.051-4.764-1.876
	c-1.089-0.83-1.289-2.734,0.026-3.679c1.577-1.135,2.636,0.115,4.498,0.715c7.055,2.271,9.784-4.09,11.872-0.36
	c1.781,3.18-4.276,4.585-5.003,5.074C15.195,24.707,18.926,27.165,16.717,29.411"/>
<path d="M9.714,0.108C5.872-0.547,1.336,1.791,0.625,6.485c-1.57,10.342,14.053,12.771,15.53,2.39
	C16.701,5.041,14.238,0.881,9.714,0.108 M8.515,10.975c-4.269,0.053-4.581-6.085-0.34-6.384C12.65,4.276,12.7,10.925,8.515,10.975"
	/>
</svg>
