<?xml version="1.0" encoding="iso-8859-1"?>
<!-- Generator: Adobe Illustrator 16.2.0, SVG Export Plug-In . SVG Version: 6.00 Build 0)  -->
<!DOCTYPE svg PUBLIC "-//W3C//DTD SVG 1.1//EN" "http://www.w3.org/Graphics/SVG/1.1/DTD/svg11.dtd">
<svg version="1.1" id="&#x421;&#x43B;&#x43E;&#x439;_1"
	 xmlns="http://www.w3.org/2000/svg" xmlns:xlink="http://www.w3.org/1999/xlink" x="0px" y="0px" width="108.556px"
	 height="97.181px" viewBox="0 0 108.556 97.181" style="enable-background:new 0 0 108.556 97.181;" xml:space="preserve">
<path style="fill:none;stroke-width:2;stroke-miterlimit:10;" d="M48.117,96.131H6.372
	C3.405,96.131,1,93.488,1,90.229V6.901C1,3.642,3.405,1,6.372,1h41.745c2.967,0,5.372,2.642,5.372,5.901v83.329
	C53.489,93.488,51.084,96.131,48.117,96.131z"/>
<line style="fill:none;stroke-width:2;stroke-linejoin:round;stroke-miterlimit:10;" x1="1" y1="14.424" x2="53.489" y2="14.424"/>
<line style="fill:none;stroke-width:2;stroke-linejoin:round;stroke-miterlimit:10;" x1="1" y1="80.651" x2="53.489" y2="80.651"/>
<line style="fill:none;stroke-width:2;stroke-linecap:round;stroke-linejoin:round;stroke-miterlimit:10;" x1="22.553" y1="7.487" x2="31.937" y2="7.487"/>
<ellipse style="fill:none;stroke-width:2;stroke-linejoin:round;stroke-miterlimit:10;" cx="27.245" cy="88.218" rx="1.486" ry="1.44"/>
<path style="fill:none;stroke-width:2;stroke-miterlimit:10;" d="M58.778,43.691h42.877c3.259,0,5.9,2.405,5.9,5.372
	v41.745c0,2.967-2.642,5.372-5.9,5.372H58.778"/>
<line style="fill:none;stroke-width:2;stroke-linejoin:round;stroke-miterlimit:10;" x1="94.132" y1="43.691" x2="94.132" y2="96.181"/>
<line style="fill:none;stroke-width:2;stroke-linecap:round;stroke-linejoin:round;stroke-miterlimit:10;" x1="101.068" y1="65.244" x2="101.068" y2="74.628"/>
<path style="fill:none;stroke-width:2;stroke-miterlimit:10;" d="M71.141,17.29c0,0,16.615-2.932,16.615,14.334"/>
<polyline style="fill:none;stroke-width:2;stroke-miterlimit:10;" points="83.9,28.995 87.592,32.687 91.394,28.887 
	"/>
</svg>
