<?xml version="1.0" encoding="iso-8859-1"?>
<!-- Generator: Adobe Illustrator 16.2.0, SVG Export Plug-In . SVG Version: 6.00 Build 0)  -->
<!DOCTYPE svg PUBLIC "-//W3C//DTD SVG 1.1//EN" "http://www.w3.org/Graphics/SVG/1.1/DTD/svg11.dtd">
<svg version="1.1" id="&#x421;&#x43B;&#x43E;&#x439;_1"
	 xmlns="http://www.w3.org/2000/svg" xmlns:xlink="http://www.w3.org/1999/xlink" x="0px" y="0px" width="110px" height="110px"
	 viewBox="0 0 110 110" style="enable-background:new 0 0 110 110;" xml:space="preserve">
<path d="M28.479,36.695c5.445,0.059,9.935,1.694,13.823,4.95c0.314,0.263,0.517,0.254,0.832,0.018
	c5.935-4.453,11.875-8.898,17.823-13.333c0.376-0.28,0.435-0.546,0.298-0.979C57.731,16.2,63.827,4.536,75.025,0.976
	c10.777-3.426,22.651,2.696,26.13,13.448c0.896,2.768,1.326,5.603,0.986,8.475c-0.881,7.435-4.572,13.071-11.2,16.633
	c-7.4,3.978-16.554,2.96-23.143-2.474c-0.358-0.296-0.593-0.352-0.988-0.055c-5.881,4.421-11.771,8.832-17.672,13.227
	c-0.426,0.317-0.537,0.594-0.372,1.111c1.313,4.129,1.313,8.276,0.055,12.417c-0.128,0.422-0.057,0.615,0.328,0.806
	c5.857,2.907,11.71,5.822,17.555,8.752c0.34,0.171,0.539,0.116,0.805-0.107c4.874-4.106,10.509-5.866,16.786-4.856
	c8.288,1.336,13.901,6.119,16.81,14.003c1.021,2.765,1.372,5.67,1.039,8.587c-0.772,6.754-3.975,12.076-9.721,15.787
	c-2.579,1.666-5.419,2.638-8.468,3.056c-10.21,1.401-20.139-5.087-22.92-15.09c-1.098-3.943-1.049-7.87,0.136-11.78
	c0.137-0.45,0.058-0.639-0.357-0.844c-5.169-2.563-10.329-5.145-15.491-7.721c-0.654-0.327-1.316-0.641-1.96-0.986
	c-0.333-0.178-0.583-0.16-0.877,0.094c-2.762,2.391-5.938,3.965-9.517,4.68c-3.681,0.736-7.331,0.569-10.883-0.683
	c-6.671-2.351-11.274-6.874-13.32-13.631c-2.436-8.045-0.535-15.217,5.391-21.173C18.168,38.62,23.168,36.744,28.479,36.695z
	 M39.249,57.607c-0.004-5.771-4.709-10.464-10.483-10.456c-5.78,0.009-10.477,4.697-10.485,10.465
	c-0.008,5.798,4.693,10.477,10.524,10.472C34.589,68.084,39.253,63.404,39.249,57.607z M70.752,89.009
	c-0.007,5.817,4.688,10.512,10.498,10.495c5.761-0.017,10.45-4.681,10.47-10.414c0.021-5.817-4.656-10.506-10.48-10.508
	C75.424,78.58,70.759,83.218,70.752,89.009z M81.191,31.442c5.838,0.009,10.527-4.651,10.528-10.462
	c0.001-5.765-4.706-10.462-10.482-10.46c-5.8,0.001-10.476,4.659-10.485,10.445C70.742,26.763,75.396,31.433,81.191,31.442z"/>
</svg>
